<?xml version="1.0" standalone="no"?><!DOCTYPE svg PUBLIC "-//W3C//DTD SVG 1.1//EN" "http://www.w3.org/Graphics/SVG/1.1/DTD/svg11.dtd"><svg t="1686316745073" class="icon" viewBox="0 0 1024 1024" version="1.1" xmlns="http://www.w3.org/2000/svg" p-id="3426" id="mx_n_1686316745074" xmlns:xlink="http://www.w3.org/1999/xlink" width="16" height="16"><path d="M384.887467 256.989867h241.117866c74.615467 0 131.515733-165.751467 131.515734-165.751467 0-49.629867-4.846933-87.176533-87.722667-89.8048-82.807467-2.696533-102.638933 59.323733-162.167467 59.323733C446.600533 60.757333 416.085333 12.014933 340.992 1.4336 265.966933-9.216 253.3376 41.608533 253.3376 91.2384c0 0 56.900267 165.751467 131.549867 165.751467z m254.293333 51.2h-254.293333C103.287467 308.224 34.133333 874.837333 34.133333 874.837333 34.133333 949.248 93.013333 1024 165.649067 1024h692.701866C930.986667 1024 989.866667 949.248 989.866667 874.837333c0 0-69.188267-566.613333-350.72-566.613333z m28.842667 435.473066c16.964267 0 30.72 14.1312 30.72 31.505067a31.095467 31.095467 0 0 1-30.72 31.470933h-124.689067v82.602667a31.095467 31.095467 0 0 1-30.72 31.470933 31.095467 31.095467 0 0 1-30.685867-31.470933v-82.602667H356.4544a31.095467 31.095467 0 0 1-30.72-31.470933c0-17.408 13.755733-31.505067 30.72-31.505067h125.474133v-39.936H356.4544a31.061333 31.061333 0 0 1-30.72-31.470933c0-17.373867 13.755733-31.505067 30.72-31.505067h84.821333l-86.8352-158.071466a31.914667 31.914667 0 0 1 11.229867-43.008 30.3104 30.3104 0 0 1 41.949867 11.502933l104.5504 189.576533h5.290666l104.584534-189.576533a30.276267 30.276267 0 0 1 41.915733-11.502933c14.677333 8.704 19.7632 27.921067 11.264 43.008l-86.8352 158.071466h79.633067c16.964267 0 30.72 14.1312 30.72 31.505067a31.061333 31.061333 0 0 1-30.72 31.470933h-124.689067v39.936h124.689067z" fill="#E44232" p-id="3427"></path></svg>