<?xml version="1.0" standalone="no"?><!DOCTYPE svg PUBLIC "-//W3C//DTD SVG 1.1//EN" "http://www.w3.org/Graphics/SVG/1.1/DTD/svg11.dtd"><svg t="1686403862812" class="icon" viewBox="0 0 1024 1024" version="1.1" xmlns="http://www.w3.org/2000/svg" p-id="14944" xmlns:xlink="http://www.w3.org/1999/xlink" width="16" height="16"><path d="M842.88512 153.70752C753.92 64.49152 635.6224 15.36 509.79328 15.36s-244.1216 49.13152-333.10208 138.34752C87.72608 242.9184 38.72256 361.54368 38.72256 487.7056c0 126.17216 48.9984 244.7872 137.97376 334.0032 88.97536 89.216 207.26784 138.34752 333.09696 138.34752 125.824 0 244.12672-49.13664 333.09184-138.34752 88.98048-89.216 137.97376-207.83104 137.97376-334.0032 0-126.16192-48.99328-244.7872-137.97376-333.99808z m-333.09184 775.9872c-243.05664 0-440.79616-198.272-440.79616-441.98912 0-243.712 197.74464-441.98912 440.79616-441.98912 243.06176 0 440.78592 198.28224 440.78592 441.98912 0 243.71712-197.72416 441.98912-440.78592 441.98912z" fill="" p-id="14945"></path><path d="M420.5824 298.24l18.0224-105.99936c2.11968-16.96256 12.0064-25.44128 29.68064-25.44128 16.96256 1.42336 26.13248 10.5984 27.56096 27.56096 0 4.23936-1.42336 12.37504-4.23936 24.38144-0.72192 4.95104-1.4336 8.84224-2.1248 11.65824l-27.56096 111.29856c-4.23936 16.96256-15.2064 25.44128-32.86016 25.44128h-9.53856c-16.96256 0.69632-26.86464-8.1152-29.68064-26.50112l-18.0224-90.10176-16.96256 90.10176c-3.54304 18.38592-13.77792 27.19744-30.74048 26.50112h-9.53856c-17.67424 0-28.6208-8.47872-32.86016-25.44128L255.22176 230.4c-4.23936-15.53408-6.72256-27.56096-7.41888-36.03968 1.408-16.96256 10.94656-26.13248 28.6208-27.56096 16.96256 0 26.84928 8.47872 29.68064 25.44128l16.96256 105.99936 16.96256-100.70016c2.816-21.89312 13.4144-32.14848 31.80032-30.74048 19.08224-0.69632 29.68064 9.53856 31.80032 30.74048l16.95232 100.70016zM648.47872 307.77856h-79.49824c1.408 19.08224 11.29472 28.98432 29.68064 29.68064 7.05536 0 16.25088-3.17952 27.56096-9.53856 9.17504-5.64736 16.59392-8.47872 22.26176-8.47872 9.89184 1.42336 15.53408 7.78752 16.96256 19.08224-2.11968 18.38592-26.50112 27.90912-73.1392 28.6208-52.30592-0.71168-78.80704-24.7296-79.49824-72.07936 1.408-47.3344 27.90912-72.07936 79.49824-74.19904 48.75776 1.42336 75.9552 22.62528 81.61792 63.60064 0.6912 16.256-7.79264 24.02304-25.4464 23.31136z m-79.49824-27.56096h51.9424c0-17.65376-8.47872-26.50112-25.44128-26.50112-16.26624 0.7168-25.09312 9.54368-26.50112 26.50112zM697.2416 341.69856V194.36032c0.69632-17.65376 9.89184-26.84928 27.56096-27.56096 18.37056 0.71168 27.90912 9.9072 28.6208 27.56096v147.33824c0 16.96256-9.53856 25.44128-28.6208 25.44128-18.38592 0-27.56096-8.47872-27.56096-25.44128zM116.36224 620.69248c1.408-47.3344 27.90912-72.07936 79.49824-74.19904 39.56736 1.42336 61.11744 14.14656 64.66048 38.15936-0.71168 12.71808-7.41888 19.44576-20.14208 20.14208-4.23936 0-9.53856-2.816-15.8976-8.47872-9.1904-7.05536-17.32608-10.5984-24.38144-10.5984-17.67424 0-26.86464 11.31008-27.56096 33.92 0.69632 23.3216 9.17504 35.34336 25.44128 36.03968 7.05536 0 15.18592-3.52768 24.38144-10.5984 7.05536-5.65248 13.06624-8.47872 18.0224-8.47872 12.71808 0.71168 19.77344 7.41888 21.20192 20.14208-5.66272 23.3216-27.56096 35.328-65.72032 36.03968-52.31104-0.72192-78.81216-24.73984-79.50336-72.0896zM281.71776 620.69248c1.408-47.3344 27.90912-72.07936 79.49824-74.19904 51.57376 2.11968 78.07488 26.86464 79.49824 74.19904-0.71168 47.34976-27.2128 71.36768-79.49824 72.07936-52.3008-0.71168-78.80192-24.7296-79.49824-72.07936z m103.8848 1.05984c0-25.44128-8.13056-38.15936-24.38144-38.15936-15.55456 0-23.3216 12.71808-23.3216 38.15936 0.69632 24.02816 8.47872 36.03968 23.3216 36.03968 16.24576-0.69632 24.38144-12.7232 24.38144-36.03968zM651.65824 667.33056v-53.00224c0.69632-16.96256-5.2992-25.07264-18.0224-24.38144-12.02688 1.42336-18.38592 9.9072-19.08224 25.44128v51.9424c0 16.96256-9.1904 25.44128-27.56096 25.44128-18.38592 0-27.56096-8.47872-27.56096-25.44128v-53.00224c0-16.96256-6.35904-25.07264-19.08224-24.38144-11.31008 1.42336-17.32608 9.9072-18.0224 25.44128v51.9424c0 16.96256-9.53856 25.44128-28.6208 25.44128-18.38592 0-27.56096-8.47872-27.56096-25.44128v-94.34112c0-17.65376 8.82688-26.50112 26.50112-26.50112 14.83776-0.69632 23.3216 8.13056 25.44128 26.50112 9.89184-17.65376 25.44128-26.50112 46.63808-26.50112 23.3216 0.71168 37.09952 9.9072 41.33888 27.56096 11.29472-19.08224 27.19744-28.25728 47.69792-27.56096 35.328 0.71168 53.3504 18.72896 54.06208 54.06208v66.78016c0 16.96256-9.1904 25.44128-27.56096 25.44128-19.06176 0-28.60544-8.48384-28.60544-25.44128zM868.96128 633.41056h-79.49824c1.408 19.08224 11.29472 28.98432 29.68064 29.68064 7.05536 0 16.25088-3.17952 27.56096-9.53856 9.17504-5.65248 16.59392-8.47872 22.26176-8.47872 9.89184 1.42336 15.53408 7.78752 16.96256 19.08224-2.11968 18.38592-26.50112 27.90912-73.1392 28.6208-52.30592-0.71168-78.80704-24.7296-79.49824-72.07936 1.408-47.3344 27.90912-72.07936 79.49824-74.19904 48.75776 1.42336 75.9552 22.62528 81.61792 63.60064 0.68608 16.256-7.79264 24.02304-25.4464 23.31136z m-79.50336-27.56096h51.9424c0-17.65376-8.47872-26.50112-25.44128-26.50112-16.26624 0.71168-25.088 9.54368-26.50112 26.50112zM775.26016 969.64096H255.73888c-22.26688 0-37.10976 7.79776-37.10976 19.50208S233.472 1008.64 255.73888 1008.64h519.52128c22.26688 0 37.10976-7.79776 37.10976-19.50208s-14.84288-19.49696-37.10976-19.49696z" fill="" p-id="14946"></path></svg>