<?xml version="1.0" standalone="no"?><!DOCTYPE svg PUBLIC "-//W3C//DTD SVG 1.1//EN" "http://www.w3.org/Graphics/SVG/1.1/DTD/svg11.dtd"><svg t="1686322505377" class="icon" viewBox="0 0 1024 1024" version="1.1" xmlns="http://www.w3.org/2000/svg" p-id="14053" xmlns:xlink="http://www.w3.org/1999/xlink" width="16" height="16"><path d="M530.986667 887.552c-69.056 0-136.661333-20.8-195.114667-60.8-77.525333-52.992-130.133333-133.376-147.904-226.389333a358.570667 358.570667 0 0 1 17.493333-196.864 354.837333 354.837333 0 0 1 114.389334-153.386667 15.722667 15.722667 0 0 1 22.250666 3.072 16.213333 16.213333 0 0 1-3.050666 22.549333 324.629333 324.629333 0 0 0-119.957334 318.592c16.32 84.544 64.042667 157.696 134.549334 205.866667a313.386667 313.386667 0 0 0 238.826666 49.258667c83.498667-16.384 155.733333-64.832 203.178667-136.213334a324.714667 324.714667 0 0 0 48.64-242.112c-16.298667-84.544-64-157.674667-134.506667-205.866666a313.386667 313.386667 0 0 0-238.848-49.258667 15.957333 15.957333 0 0 1-18.688-12.736 16.149333 16.149333 0 0 1 12.586667-18.922667c91.861333-18.133333 185.173333 1.194667 262.698667 54.208 77.546667 53.013333 130.154667 133.397333 147.925333 226.410667 17.749333 93.013333-1.066667 187.477333-53.418667 266.112-52.352 78.506667-131.754667 131.797333-223.594666 149.909333-22.4 4.288-45.077333 6.570667-67.477334 6.570667z" fill="#1465FF" p-id="14054"></path><path d="M210.24 535.552c0 179.370667 143.573333 324.757333 320.725333 324.757333s320.746667-145.386667 320.746667-324.757333c0-179.370667-143.573333-324.778667-320.746667-324.778667-177.130667 0-320.725333 145.408-320.725333 324.778667z" fill="#C0D6FF" p-id="14055"></path><path d="M479.808 209.429333a321.450667 321.450667 0 0 0-203.178667 125.76c-107.626667 144.661333-78.997333 350.122667 63.893334 459.242667a319.914667 319.914667 0 0 0 288.128 52.202667 320.384 320.384 0 0 1-250.368-61.205334c-142.869333-109.098667-171.498667-314.709333-63.872-459.242666a322.688 322.688 0 0 1 165.397333-116.757334z" fill="#EDF3FF" p-id="14056"></path><path d="M798.314667 258.645333a84.138667 84.138667 0 0 0 52.629333-68.352c5.610667-46.229333-26.944-88.405333-72.725333-94.08a83.029333 83.029333 0 0 0-76.736 32.768 278.784 278.784 0 0 1 96.853333 129.664z" fill="#FFBF1C" p-id="14057"></path><path d="M789.013333 295.765333a16.106667 16.106667 0 0 1-14.869333-10.645333l-5.610667-15.445333a244.736 244.736 0 0 0-85.717333-114.624l-13.12-9.6a16.085333 16.085333 0 0 1-3.392-22.72l9.877333-13.12a115.157333 115.157333 0 0 1 106.048-45.376 114.261333 114.261333 0 0 1 76.8 43.904 116.970667 116.970667 0 0 1 23.616 86.08 116.586667 116.586667 0 0 1-72.618666 94.549333l-15.146667 5.973333c-1.92 0.554667-3.989333 0.981333-5.866667 1.024z m-87.530666-166.784a277.184 277.184 0 0 1 96.853333 129.664 84.053333 84.053333 0 0 0 52.608-68.352A84.714667 84.714667 0 0 0 833.792 128a82.325333 82.325333 0 0 0-55.573333-31.786667 83.285333 83.285333 0 0 0-76.736 32.768z" fill="#1465FF" p-id="14058"></path><path d="M727.68 127.296l34.453333 42.538667c6.229333 0.277333 11.52-5.888 16.170667-18.645334 6.890667-19.050667-2.133333-34.624-7.573333-36.778666-3.712-1.472-18.026667 2.816-43.072 12.885333zM751.594667 489.877333c-23.552-122.666667-140.8-202.773333-261.866667-178.944-121.066667 23.829333-200.128 142.592-176.576 265.258667 23.552 122.666667 140.8 202.794667 261.866667 178.965333 121.066667-23.850667 200.128-142.613333 176.576-265.28z" fill="#FFFFFF" p-id="14059"></path><path d="M531.84 791.616c-50.346667 0.064-99.584-15.125333-142.186667-44.330667-56.554667-38.613333-94.805333-97.130667-107.818666-164.992a259.456 259.456 0 0 1 38.933333-193.856c38.144-57.28 95.936-96 162.816-109.162666a250.581333 250.581333 0 0 1 191.317333 39.466666c56.576 38.613333 94.805333 97.130667 107.84 164.970667a259.456 259.456 0 0 1-38.933333 193.877333c-38.165333 57.258667-95.936 96-162.816 109.141334a239.786667 239.786667 0 0 1-49.152 4.906666z m0.896-484.821333a219.093333 219.093333 0 0 0-43.072 4.224c-58.538667 11.52-109.141333 45.418667-142.592 95.616a227.264 227.264 0 0 0-34.133333 169.685333c11.392 59.264 44.885333 110.656 94.442666 144.362667a219.946667 219.946667 0 0 0 167.573334 34.56c58.538667-11.52 109.141333-45.397333 142.592-95.594667a227.264 227.264 0 0 0 34.133333-169.685333c-11.392-59.285333-44.885333-110.656-94.421333-144.384a218.56 218.56 0 0 0-124.522667-38.784z" fill="#1465FF" p-id="14060"></path><path d="M417.514667 731.221333a229.162667 229.162667 0 0 1-109.205334-155.136c-23.978667-124.693333 56.469333-245.333333 179.456-269.482666a224.682667 224.682667 0 0 1 183.04 44.416 222.848 222.848 0 0 0-156.928-26.581334c-122.986667 24.170667-203.456 144.938667-179.456 269.482667a228.266667 228.266667 0 0 0 83.093334 137.301333z" fill="#EDF3FF" p-id="14061"></path><path d="M659.264 661.696a15.786667 15.786667 0 0 1-10.453333-4.032l-120.106667-106.410667a16.298667 16.298667 0 0 1-5.141333-9.002666l-34.474667-179.84a16.149333 16.149333 0 0 1 12.586667-18.901334 15.957333 15.957333 0 0 1 18.688 12.736l33.536 174.464 115.968 102.805334a16.128 16.128 0 0 1-10.602667 28.181333z" fill="#1465FF" p-id="14062"></path><path d="M384.426667 990.528l35.84-115.541333c-11.733333-4.544-20.181333-7.893333-25.429334-9.706667a182.570667 182.570667 0 0 1-21.034666-10.005333l-71.808 89.962666c7.04 16.426667 17.429333 28.8 30.976 37.333334 13.824 8.362667 30.890667 11.093333 51.477333 7.957333z" fill="#C0D6FF" p-id="14063"></path><path d="M368.490667 1024c-19.498667 0-37.034667-4.736-52.053334-14.016-19.264-11.946667-33.92-29.397333-43.584-51.904l-3.882666-8.981333a16.554667 16.554667 0 0 1 2.197333-16.597334l86.08-107.925333a15.701333 15.701333 0 0 1 19.882667-4.053333l11.626666 6.293333c9.728 5.312 14.826667 7.402667 16.853334 8.149333 5.376 1.941333 14.08 5.269333 25.941333 9.941334l13.845333 5.418666c7.786667 3.093333 11.946667 11.797333 9.429334 19.818667l-43.2 139.562667a15.914667 15.914667 0 0 1-12.736 11.072l-9.898667 1.557333c-6.997333 1.066667-13.866667 1.706667-20.48 1.664z m-66.368-78.762667c7.04 16.277333 17.429333 28.928 30.997333 37.312 13.546667 8.384 30.869333 11.114667 51.328 7.978667l35.797333-115.541333a817.92 817.92 0 0 0-25.386666-9.706667 208.469333 208.469333 0 0 1-21.056-10.005333l-71.68 89.962666z" fill="#1465FF" p-id="14064"></path><path d="M306.709333 940.586667l66.944-85.226667 13.525334 6.442667z" fill="#EDF3FF" p-id="14065"></path><path d="M869.333333 921.045333l-105.173333-117.205333c-0.490667 0.618667 3.861333-3.712 12.928-12.629333 9.173333-9.088 17.173333-16.597333 24-22.698667l126.72 79.402667c1.706667 18.517333-3.968 34.88-16.96 48.96-12.864 14.037333-26.730667 22.144-41.536 24.170666z" fill="#C0D6FF" p-id="14066"></path><path d="M863.210667 954.282667a15.637333 15.637333 0 0 1-11.733334-5.248l-109.994666-122.709334a13.653333 13.653333 0 0 1-2.133334-2.346666l-1.941333-2.709334a21.226667 21.226667 0 0 1-1.536-2.709333c-1.344-2.944-1.578667-3.584-2.154667-5.205333-0.149333-0.384-0.277333-0.768-0.298666-1.194667-0.426667-1.984-0.597333-2.474667-0.768-3.712a10.026667 10.026667 0 0 1-0.128-1.941333 35.925333 35.925333 0 0 1 0.682666-10.24 8.704 8.704 0 0 1 0.64-2.133334c1.856-4.650667 2.410667-6.293333 4.394667-9.024 0.853333-1.173333 1.130667-1.557333 1.813333-2.389333l11.669334-13.866667a15.274667 15.274667 0 0 1 7.168-4.778666c7.914667-7.765333 14.997333-14.378667 21.290666-19.989334l8.896-7.850666a15.765333 15.765333 0 0 1 18.901334-1.536l143.36 89.984a16.576 16.576 0 0 1 7.488 12.245333l0.768 8c2.453333 27.648-6.293333 53.141333-25.344 73.877333-17.962667 19.477333-38.250667 30.954667-60.373334 34.133334l-8.32 1.194666c-0.789333 0.149333-1.493333 0.128-2.346666 0.149334z m-77.546667-126.677334l83.776 93.376c14.613333-2.090667 28.608-10.24 41.536-24.149333 12.864-14.037333 18.56-30.4 16.96-48.96l-126.72-79.402667c-4.288 3.733333-8.917333 8.149333-14.08 13.034667l11.029333 12.224a16.341333 16.341333 0 0 1-0.682666 22.4 1076.202667 1076.202667 0 0 1-10.944 10.752 9.152 9.152 0 0 0-0.853334 0.725333z" fill="#1465FF" p-id="14067"></path><path d="M764.693333 804.202667l104.405334 114.773333-86.613334-132.906667z" fill="#EDF3FF" p-id="14068"></path><path d="M158.826667 397.013333a90.090667 90.090667 0 0 1-61.376-69.269333c-9.429333-49.130667 22.357333-96.682667 70.890666-106.24a88.917333 88.917333 0 0 1 84.608 29.290667 300.757333 300.757333 0 0 0-94.122666 146.218666z" fill="#FFBF1C" p-id="14069"></path><path d="M169.6 433.450667a13.866667 13.866667 0 0 1-4.736-0.725334l-15.509333-4.864a122.346667 122.346667 0 0 1-83.114667-93.973333c-12.757333-66.389333 30.336-131.072 96.021333-144a121.109333 121.109333 0 0 1 114.56 39.68l10.752 12.373333a16.064 16.064 0 0 1-1.813333 22.912l-12.437333 10.496a267.733333 267.733333 0 0 0-83.882667 130.666667l-4.522667 15.786667a16.149333 16.149333 0 0 1-7.722666 9.728 19.2 19.2 0 0 1-7.594667 1.92z m15.722667-213.504a89.728 89.728 0 0 0-16.96 1.706666c-48.533333 9.536-80.32 57.088-70.912 106.090667a90.304 90.304 0 0 0 61.376 69.269333 297.301333 297.301333 0 0 1 94.144-146.090666 89.578667 89.578667 0 0 0-67.648-30.976z" fill="#1465FF" p-id="14070"></path><path d="M142.378667 232.106667c-20.693333 32.490667-29.44 61.461333-26.24 87.253333 3.178667 25.749333 13.653333 50.453333 31.274666 74.325333-33.813333-20.117333-50.496-47.893333-50.24-83.605333 0.256-35.690667 15.253333-61.738667 45.205334-77.973333z" fill="#FFFFFF" p-id="14071"></path><path d="M218.453333 792.810667L171.136 754.56l2.24-49.792-46.378667-23.616 8.213334-58.517333 26.901333 3.776-5.418667 39.04 44.650667 22.826666-2.389333 53.546667 36.458666 29.376zM437.802667 250.88a13.717333 13.717333 0 0 1-3.968-0.64l-104.981334-34.496a13.013333 13.013333 0 0 1-2.261333-23.637333l116.501333-66.154667-77.12-25.365333a12.906667 12.906667 0 0 1-8.234666-16.362667c2.133333-6.848 9.429333-10.602667 16.170666-8.32l104.96 34.474667a13.013333 13.013333 0 0 1 2.261334 23.616l-116.48 66.176 77.12 25.365333c6.762667 2.133333 10.474667 9.514667 8.213333 16.362667a13.013333 13.013333 0 0 1-12.181333 9.002666z m111.189333-149.76a12.864 12.864 0 0 1-8.597333-3.349333 12.906667 12.906667 0 0 1-3.456-13.696l15.786666-47.104-21.888 9.813333a12.757333 12.757333 0 0 1-16.96-6.592 13.034667 13.034667 0 0 1 6.485334-17.173333L568.874667 1.152a12.458667 12.458667 0 0 1 13.781333 2.282667 12.906667 12.906667 0 0 1 3.456 13.674666l-15.786667 47.104 21.888-9.792a12.757333 12.757333 0 0 1 16.96 6.570667 13.034667 13.034667 0 0 1-6.485333 17.194667L554.176 100.053333a11.541333 11.541333 0 0 1-5.184 1.066667z m-1.984 652.778667l-8.469333-52.885334 31.402666-5.098666 8.490667 52.885333-31.424 5.098667z m-72.106667-7.936l-30.08-10.325334 17.109334-50.602666 30.08 10.346666-17.109334 50.581334z m170.581334-24.149334l-31.146667-43.221333 25.728-19.050667 31.146667 43.221334-25.728 19.050666z m-261.098667-26.965333L362.666667 671.36l38.570666-36.650667 21.76 23.488-38.592 36.650667z m334.144-47.786667l-47.573333-23.338666 13.909333-29.013334 47.573333 23.36-13.909333 29.013334z m-390.336-39.850666l-8.874667-30.869334 50.773334-14.890666 8.853333 30.848-50.773333 14.912z m367.658667-58.794667l-1.194667-32.213333 52.757333-2.005334 1.194667 32.213334-52.757333 2.005333z m-325.76-34.752l-51.712-11.008 6.506666-31.530667 51.690667 11.008-6.506667 31.530667z m312.917333-44.010667l-15.509333-28.181333 46.122666-26.026667 15.509334 28.16-46.122667 26.026667z m-284.842667-29.802666l-40.533333-34.218667 20.394667-24.682667 40.554666 34.218667-20.416 24.682667zM635.946667 406.186667l-26.773334-17.450667 28.629334-44.949333 26.773333 17.450666-28.629333 44.949334z m-178.389334-18.517334l-20.821333-49.258666 29.290667-12.608 20.821333 49.258666-29.290667 12.608z m107.605334-15.701333l-31.658667-2.688 4.48-53.269333 31.701333 2.688-4.522666 53.269333z" fill="#1465FF" p-id="14072"></path></svg>